<?xml version="1.0" encoding="UTF-8" standalone="no"?>
<svg
   width="288"
   height="288"
   viewportWidth="76.2"
   viewportHeight="76.2"
   version="1.1"
   id="svg22"
   xmlns:xlink="http://www.w3.org/1999/xlink"
   xmlns="http://www.w3.org/2000/svg"
   xmlns:svg="http://www.w3.org/2000/svg"
   xmlns:aapt="http://schemas.android.com/aapt">
  <defs
     id="defs22">
    <linearGradient
       id="linearGradient33">
      <stop
         style="stop-color:#0055ff;stop-opacity:1;"
         offset="0"
         id="stop33" />
      <stop
         style="stop-color:#ff00e7;stop-opacity:1;"
         offset="1"
         id="stop34" />
    </linearGradient>
    <linearGradient
       id="linearGradient31">
      <stop
         style="stop-color:#54ff00;stop-opacity:1;"
         offset="0"
         id="stop31" />
      <stop
         style="stop-color:#00aaff;stop-opacity:1;"
         offset="1"
         id="stop32" />
    </linearGradient>
    <linearGradient
       id="linearGradient29">
      <stop
         style="stop-color:#ff0000;stop-opacity:1;"
         offset="0"
         id="stop29" />
      <stop
         style="stop-color:#bfff00;stop-opacity:1;"
         offset="1"
         id="stop30" />
    </linearGradient>
    <linearGradient
       xlink:href="#linearGradient29"
       id="linearGradient30"
       x1="27.336"
       y1="56.601002"
       x2="34.077999"
       y2="56.601002"
       gradientUnits="userSpaceOnUse"
       gradientTransform="translate(126.86999,88.784732)" />
    <linearGradient
       xlink:href="#linearGradient31"
       id="linearGradient32"
       x1="35.828999"
       y1="57.613499"
       x2="41.502998"
       y2="57.613499"
       gradientUnits="userSpaceOnUse"
       gradientTransform="translate(126.86999,88.784732)" />
    <linearGradient
       xlink:href="#linearGradient33"
       id="linearGradient34"
       x1="42.811001"
       y1="57.544998"
       x2="48.868"
       y2="57.544998"
       gradientUnits="userSpaceOnUse"
       gradientTransform="translate(126.86999,88.784732)" />
  </defs>
  <g
     id="g34"
     transform="matrix(3.6434608,0,0,3.6434608,-457.06716,-317.898)">
    <path
       d="m 154.20599,141.62473 h 1.94 v 2.867 h 2.862 v -2.867 h 1.94 v 7.522 h -1.94 v -3.189 h -2.862 v 3.189 h -1.94 z"
       stroke-width="0.054"
       id="path1"
       style="fill:url(#linearGradient30)">
      <aapt:attr
         name="fill"
         style="fill:url(#linearGradient30);fill-opacity:1">
        <gradient
           startX="27.224"
           startY="56.833"
           endX="45.033"
           endY="56.833"
           type="linear"
           style="fill:url(#linearGradient30);fill-opacity:1">
          <item
             offset="0"
             color="#FFFF0000"
             style="fill:url(#linearGradient30);fill-opacity:1" />
          <item
             offset="0.5"
             color="#FF58FF00"
             style="fill:url(#linearGradient30);fill-opacity:1" />
          <item
             offset="0.75"
             color="#FF1B00FF"
             style="fill:url(#linearGradient30);fill-opacity:1" />
          <item
             offset="1"
             color="#FFFF00E1"
             style="fill:url(#linearGradient30);fill-opacity:1" />
        </gradient>
      </aapt:attr>
    </path>
    <path
       d="m 162.69999,146.94973 v -3.446 h 1.814 v 0.564 q 0,0.458 -0.005,1.154 -0.005,0.69 -0.005,0.922 0,0.68 0.035,0.982 0.035,0.297 0.121,0.433 0.111,0.176 0.287,0.272 0.181,0.096 0.413,0.096 0.564,0 0.887,-0.433 0.322,-0.433 0.322,-1.204 v -2.786 h 1.804 v 5.643 h -1.804 v -0.816 q -0.408,0.494 -0.867,0.73 -0.453,0.232 -1.003,0.232 -0.977,0 -1.491,-0.6 -0.509,-0.6 -0.509,-1.743 z"
       stroke-width="0.054"
       id="path2"
       style="fill:url(#linearGradient32)">
      <aapt:attr
         name="fill"
         style="fill:url(#linearGradient32)">
        <gradient
           startX="27.224"
           startY="56.833"
           endX="45.033"
           endY="56.833"
           type="linear"
           style="fill:url(#linearGradient32)">
          <item
             offset="0"
             color="#FFFF0000"
             style="fill:url(#linearGradient32)" />
          <item
             offset="0.5"
             color="#FF58FF00"
             style="fill:url(#linearGradient32)" />
          <item
             offset="0.75"
             color="#FF1B00FF"
             style="fill:url(#linearGradient32)" />
          <item
             offset="1"
             color="#FFFF00E1"
             style="fill:url(#linearGradient32)" />
        </gradient>
      </aapt:attr>
    </path>
    <path
       d="m 175.73799,146.30973 v 0.514 h -4.217 q 0.065,0.635 0.458,0.952 0.393,0.317 1.098,0.317 0.569,0 1.164,-0.166 0.6,-0.171 1.229,-0.514 v 1.39 q -0.64,0.242 -1.28,0.363 -0.64,0.126 -1.28,0.126 -1.532,0 -2.383,-0.776 -0.846,-0.781 -0.846,-2.186 0,-1.38 0.831,-2.171 0.836,-0.791 2.297,-0.791 1.33,0 2.126,0.801 0.801,0.801 0.801,2.141 z m -1.854,-0.599 q 0,-0.514 -0.302,-0.826 -0.297,-0.317 -0.781,-0.317 -0.524,0 -0.851,0.297 -0.327,0.292 -0.408,0.846 z"
       stroke-width="0.054"
       id="path3"
       style="fill:url(#linearGradient34)">
      <aapt:attr
         name="fill"
         style="fill:url(#linearGradient34)">
        <gradient
           startX="27.224"
           startY="56.833"
           endX="45.033"
           endY="56.833"
           type="linear"
           style="fill:url(#linearGradient34)">
          <item
             offset="0"
             color="#FFFF0000"
             style="fill:url(#linearGradient34)" />
          <item
             offset="0.5"
             color="#FF58FF00"
             style="fill:url(#linearGradient34)" />
          <item
             offset="0.75"
             color="#FF1B00FF"
             style="fill:url(#linearGradient34)" />
          <item
             offset="1"
             color="#FFFF00E1"
             style="fill:url(#linearGradient34)" />
        </gradient>
      </aapt:attr>
    </path>
    <path
       d="m 168.55399,113.84673 c 0,0 -0.448,-0.896 0.896,-1.791 4.389,-2.508 7.702,-0.448 9.852,-2.687 -0.179,3.403 -1.791,4.478 -1.791,4.478 z m -2.687,0.627 c -2.328,-7.434 2.866,-10.479 3.135,-10.569 l -0.448,-0.806 0.448,0.806 -0.896,-1.612 c -0.09,0 -6.717,3.851 -4.03,12.718 z m -7.165,-0.627 v -0.896 c -0.716,-4.926 -4.836,-1.701 -8.956,-3.582 0.537,2.418 2.687,4.478 2.687,4.478 z"
       fill="#388e3c"
       id="path4" />
    <path
       d="m 172.13699,114.74273 h -6.27 c -0.269,-0.896 -0.448,-2.06 -0.537,-2.866 1.164,-1.792 4.926,-1.523 7.703,-6.091 2.149,4.926 -0.896,8.957 -0.896,8.957 z m -8.061,0 c 0,0 0.358,0.627 0,-1.791 -0.716,-5.016 -5.015,-3.135 -7.165,-8.957 -4.389,7.076 0.896,10.748 0.896,10.748 z"
       fill="#4caf50"
       id="path5" />
    <path
       d="m 156.91099,129.96873 m -4.478,0 a 4.478,4.478 0 1 0 8.956,0 4.478,4.478 0 1 0 -8.956,0 z"
       fill="#ff4081"
       id="path6" />
    <path
       d="m 164.97199,130.86373 m -4.478,0 a 4.478,4.478 0 1 0 8.956,0 4.478,4.478 0 1 0 -8.956,0 z"
       fill="#ff4081"
       id="path7" />
    <path
       d="m 173.03299,129.96873 m -4.478,0 a 4.478,4.478 0 1 0 8.956,0 4.478,4.478 0 1 0 -8.956,0 z"
       fill="#ff4081"
       id="path8" />
    <path
       d="m 168.55399,124.59473 m -4.478,0 a 4.4785,4.4785 0 1 0 8.957,0 4.4785,4.4785 0 1 0 -8.957,0 z"
       fill="#ff4081"
       id="path9" />
    <path
       d="m 175.71899,123.69873 m -4.478,0 a 4.478,4.478 0 1 0 8.956,0 4.478,4.478 0 1 0 -8.956,0 z"
       fill="#ff4081"
       id="path10" />
    <path
       d="m 154.22399,123.69873 m -4.478,0 a 4.478,4.478 0 1 0 8.956,0 4.478,4.478 0 1 0 -8.956,0 z"
       fill="#ff4081"
       id="path11" />
    <path
       d="m 161.38899,124.59473 m -4.478,0 a 4.478,4.478 0 1 0 8.956,0 4.478,4.478 0 1 0 -8.956,0 z"
       fill="#ff4081"
       id="path12" />
    <path
       d="m 153.32799,117.42973 m -4.478,0 a 4.478,4.478 0 1 0 8.956,0 4.478,4.478 0 1 0 -8.956,0 z"
       fill="#ff4081"
       id="path13" />
    <path
       d="m 176.61499,117.42973 m -4.478,0 a 4.478,4.478 0 1 0 8.956,0 4.478,4.478 0 1 0 -8.956,0 z"
       fill="#ff4081"
       id="path14" />
    <path
       d="m 158.70199,117.42973 m -4.478,0 a 4.478,4.478 0 1 0 8.956,0 4.478,4.478 0 1 0 -8.956,0 z"
       fill="#ff4081"
       id="path15" />
    <path
       d="m 171.24099,117.42973 m -4.478,0 a 4.478,4.478 0 1 0 8.956,0 4.478,4.478 0 1 0 -8.956,0 z"
       fill="#ff4081"
       id="path16" />
    <path
       d="m 164.97199,117.42973 m -4.478,0 a 4.478,4.478 0 1 0 8.956,0 4.478,4.478 0 1 0 -8.956,0 z"
       fill="#ff4081"
       id="path17" />
    <path
       d="m 164.97199,137.13373 m -4.478,0 a 4.478,4.478 0 1 0 8.956,0 4.478,4.478 0 1 0 -8.956,0 z"
       fill="#ff4081"
       id="path18" />
    <path
       d="m 169.44999,134.44673 m -4.478,0 a 4.478,4.478 0 1 0 8.956,0 4.478,4.478 0 1 0 -8.956,0 z"
       fill="#ff4081"
       id="path19" />
    <path
       d="m 160.49399,134.44673 m -4.478,0 a 4.478,4.478 0 1 0 8.956,0 4.478,4.478 0 1 0 -8.956,0 z"
       fill="#ff4081"
       id="path20" />
    <path
       d="m 164.97199,134.44673 c -0.179,-0.09 -0.269,-0.09 -0.358,-0.09 0.09,0.09 0.269,0.09 0.358,0.09 z"
       fill="#c51162"
       id="path21" />
    <path
       d="m 181.09299,117.42973 c 0,-2.508 -1.97,-4.479 -4.478,-4.479 1.523,0 2.687,2.956 2.687,4.478 0,1.523 -1.164,2.687 -2.687,2.687 -0.537,0 -1.075,-0.179 -1.523,-0.448 0.359,-0.626 0.627,-1.432 0.627,-2.238 0,-1.075 -0.358,-2.06 -0.985,-2.776 0.448,-0.896 1.164,-1.702 1.881,-1.702 -0.985,0 -1.97,0.358 -2.687,0.896 -0.717,-0.537 -1.702,-0.896 -2.687,-0.896 1.523,0 2.687,2.956 2.687,4.478 0,1.523 -1.164,2.687 -2.687,2.687 -0.896,0 -1.612,-0.448 -2.15,-1.075 0.179,-0.537 0.358,-1.075 0.358,-1.612 0,-0.717 -0.179,-1.343 -0.448,-1.97 0.448,-1.254 1.254,-2.508 2.239,-2.508 -1.254,0 -2.329,0.537 -3.135,1.254 -0.806,-0.717 -1.881,-1.254 -3.135,-1.254 1.523,0 2.687,2.956 2.687,4.478 0,1.523 -1.164,2.687 -2.687,2.687 -1.523,0 -2.687,-1.164 -2.687,-2.687 0,-1.523 1.164,-4.478 2.687,-4.478 -1.254,0 -2.329,0.537 -3.135,1.254 -0.806,-0.717 -1.881,-1.254 -3.135,-1.254 0.985,0 1.791,1.254 2.239,2.508 -0.269,0.627 -0.448,1.254 -0.448,1.97 0,0.537 0.09,1.164 0.358,1.612 -0.537,0.627 -1.254,1.075 -2.15,1.075 -1.523,0 -2.687,-1.164 -2.687,-2.687 0,-1.523 1.164,-4.478 2.687,-4.478 -0.985,0 -1.97,0.358 -2.687,0.896 -0.717,-0.537 -1.702,-0.896 -2.687,-0.896 0.717,0 1.433,0.717 1.881,1.702 -0.624,0.716 -0.982,1.701 -0.982,2.776 0,0.806 0.179,1.523 0.627,2.239 -0.448,0.269 -0.896,0.448 -1.523,0.448 -1.523,0 -2.687,-1.164 -2.687,-2.687 0,-1.523 1.164,-4.478 2.687,-4.478 -2.507,-0.001 -4.478,1.97 -4.478,4.478 0,1.433 0.717,2.776 1.791,3.583 -0.537,0.717 -0.896,1.702 -0.896,2.687 0,1.97 1.343,3.672 3.135,4.299 -0.269,0.537 -0.448,1.254 -0.448,1.97 0,2.15 1.523,3.941 3.583,4.389 v 0.09 c 0,2.508 1.97,4.478 4.478,4.478 h 0.358 c 0.717,1.612 2.239,2.687 4.12,2.687 1.881,0 3.403,-1.164 4.12,-2.687 h 0.358 c 2.508,0 4.478,-1.97 4.478,-4.478 v -0.09 c 2.061,-0.449 3.584,-2.24 3.584,-4.389 0,-0.717 -0.179,-1.433 -0.537,-1.97 1.881,-0.537 3.224,-2.239 3.224,-4.299 0,-0.985 -0.358,-1.97 -0.896,-2.687 1.075,-0.806 1.791,-2.15 1.791,-3.583 z m -14.24,4.03 c 0.448,-0.179 0.896,-0.537 1.254,-0.896 0.627,0.627 1.433,1.075 2.329,1.254 0.448,0.896 0.806,2.06 0.806,2.776 0,1.523 -1.164,2.687 -2.687,2.687 -1.523,0 -2.687,-1.164 -2.687,-2.687 0,-0.806 0.358,-2.15 0.985,-3.135 z m -1.881,0.448 z m 0,5.374 c 0.537,0.717 1.343,1.343 2.239,1.612 0.269,0.717 0.448,1.433 0.448,2.06 0,1.523 -1.164,2.687 -2.687,2.687 -1.523,0 -2.687,-1.164 -2.687,-2.687 0,-0.537 0.179,-1.254 0.448,-2.06 0.895,-0.358 1.701,-0.896 2.239,-1.612 z m -5.464,-5.464 c 0.896,-0.179 1.702,-0.627 2.329,-1.254 0.358,0.358 0.806,0.627 1.254,0.896 0.627,0.985 0.985,2.239 0.985,3.135 0,1.523 -1.164,2.687 -2.687,2.687 -1.523,0 -2.687,-1.164 -2.687,-2.687 0,-0.717 0.269,-1.791 0.806,-2.776 z m -7.971,1.881 c 0,-0.537 0.179,-1.254 0.448,-2.06 0.448,0.179 0.896,0.269 1.343,0.269 0.985,0 1.97,-0.358 2.687,-0.896 0.09,0.09 0.179,0.09 0.269,0.179 0.448,0.896 0.627,1.881 0.627,2.508 0,1.523 -1.164,2.687 -2.687,2.687 -1.523,0 -2.687,-1.164 -2.687,-2.687 z m 5.374,8.957 c -1.523,0 -2.687,-1.164 -2.687,-2.687 0,-0.537 0.179,-1.164 0.358,-1.791 1.165,-0.09 2.15,-0.628 2.866,-1.434 0.448,0.806 1.075,1.433 1.881,1.791 0.179,0.537 0.269,1.075 0.269,1.433 0,1.523 -1.164,2.687 -2.687,2.687 z m 0.896,1.791 v -0.09 c 1.254,-0.269 2.239,-0.985 2.866,-2.06 0.179,0.448 0.358,0.896 0.717,1.254 l 1.164,1.075 0.537,0.269 c -0.179,1.254 -1.254,2.239 -2.597,2.239 -1.523,0 -2.687,-1.164 -2.687,-2.687 z m 7.165,5.374 c -0.985,0 -1.881,-0.627 -2.329,-1.433 1.164,-0.627 1.97,-1.702 2.239,-3.046 h 0.179 c 0.269,1.343 1.164,2.418 2.239,3.045 -0.448,0.806 -1.343,1.433 -2.329,1.433 z m 4.478,-2.687 c -1.343,0 -2.418,-0.985 -2.597,-2.239 l 0.537,-0.269 1.164,-1.075 c 0.269,-0.358 0.537,-0.806 0.717,-1.254 0.627,0.985 1.612,1.791 2.866,2.06 h 0.089 v 0.09 c -0.09,1.523 -1.254,2.687 -2.776,2.687 z m 3.583,-4.478 c -1.523,0 -2.687,-1.164 -2.687,-2.687 0,-0.358 0.09,-0.896 0.269,-1.433 0.806,-0.448 1.433,-1.075 1.881,-1.791 0.717,0.806 1.791,1.254 2.866,1.433 0.269,0.627 0.358,1.343 0.358,1.791 0,1.523 -1.164,2.687 -2.687,2.687 z m 2.686,-6.27 c -1.523,0 -2.687,-1.164 -2.687,-2.687 0,-0.717 0.269,-1.612 0.627,-2.508 0.09,-0.09 0.179,-0.09 0.269,-0.179 0.717,0.537 1.702,0.896 2.687,0.896 0.448,0 0.896,-0.09 1.343,-0.269 0.269,0.717 0.448,1.433 0.448,2.06 0,1.523 -1.164,2.687 -2.687,2.687 z"
       fill="#c51162"
       id="path22" />
  </g>
</svg>
